<?xml version="1.0" encoding="utf-8"?>
<!-- Generator: Adobe Illustrator 19.1.1, SVG Export Plug-In . SVG Version: 6.00 Build 0)  -->
<svg version="1.1" id="Layer_1" xmlns="http://www.w3.org/2000/svg" xmlns:xlink="http://www.w3.org/1999/xlink" x="0px" y="0px"
	 viewBox="-8107 3387.5 168 24" style="enable-background:new -8107 3387.5 168 24;" xml:space="preserve">
<style type="text/css">
	.st0{fill:#FFFFFF;}
	.st1{fill:#00A2F4;}
</style>
<g>
	<path class="st0" d="M-8047,3408.2c-1-0.8-1.7-2-2-3.8l2-0.7c0.2,1.2,0.7,2.1,1.3,2.7c0.6,0.6,1.4,0.9,2.3,0.9s1.5-0.3,1.9-0.7
		c0.4-0.5,0.7-1.2,0.7-2.2c0-0.7-0.1-1.3-0.4-1.8c-0.3-0.5-0.6-0.9-1.1-1.3c-0.4-0.3-1-0.7-1.7-1.1c-1-0.6-1.8-1-2.3-1.4
		c-0.5-0.3-0.9-0.8-1.3-1.5c-0.4-0.6-0.6-1.4-0.6-2.4c0-1.4,0.4-2.5,1.2-3.3c0.8-0.7,1.9-1.1,3.4-1.1c1.2,0,2.3,0.4,3.2,1.1
		c0.9,0.7,1.4,1.8,1.7,3.2l-1.8,0.6c-0.2-1-0.5-1.7-1-2.1c-0.5-0.6-1.2-0.8-2.1-0.8c-0.8,0-1.4,0.2-1.8,0.7s-0.6,1.1-0.6,1.8
		c0,0.5,0.1,1,0.4,1.3c0.3,0.4,0.6,0.7,1,1s0.9,0.6,1.6,1l0.5,0.3c0.8,0.5,1.5,0.9,2.1,1.4c0.6,0.4,1,1,1.4,1.8
		c0.4,0.7,0.6,1.6,0.6,2.7c0,1.5-0.4,2.7-1.3,3.6c-0.9,0.9-2.1,1.4-3.6,1.4C-8044.8,3409.4-8045.9,3409-8047,3408.2z"/>
	<path class="st0" d="M-8033.5,3408.3c-1-0.7-1.8-1.8-2.3-3.3c-0.5-1.4-0.8-3.1-0.8-5.1s0.3-3.7,0.8-5.1c0.5-1.4,1.3-2.5,2.3-3.3
		s2.2-1,3.5-1s2.6,0.4,3.6,1.1c1,0.7,1.8,1.8,2.3,3.3c0.5,1.4,0.8,3.1,0.8,5.1s-0.3,3.7-0.8,5.1c-0.5,1.4-1.3,2.5-2.3,3.3
		c-1,0.7-2.2,1.1-3.6,1.1S-8032.5,3409.1-8033.5,3408.3z M-8026.7,3405.4c0.8-1.3,1.2-3.1,1.2-5.4s-0.4-4.2-1.2-5.5
		c-0.8-1.3-1.8-2-3.2-2s-2.4,0.7-3.2,2c-0.8,1.3-1.2,3.1-1.2,5.5c0,2.3,0.4,4.1,1.2,5.4c0.8,1.3,1.8,2,3.2,2
		C-8028.6,3407.3-8027.5,3406.7-8026.7,3405.4z"/>
	<path class="st0" d="M-8020.4,3390.7h2.4v16.4h6v2.1h-8.4V3390.7z"/>
	<path class="st0" d="M-8009.4,3407.9c-0.9-1-1.4-2.4-1.4-4.3v-12.9h2.3v13c0,1.2,0.3,2.1,0.8,2.7c0.5,0.6,1.3,0.9,2.3,0.9
		s1.8-0.3,2.3-0.9c0.6-0.6,0.8-1.5,0.8-2.7v-13h2.3v12.8c0,1.9-0.5,3.4-1.4,4.4s-2.3,1.5-4.1,1.5
		C-8007.1,3409.4-8008.5,3408.9-8009.4,3407.9z"/>
	<path class="st0" d="M-7994,3392.8h-4.2v-2h10.7v2h-4.2v16.4h-2.3V3392.8z"/>
	<path class="st0" d="M-7985.6,3390.7h2.3v18.4h-2.3V3390.7z"/>
	<path class="st0" d="M-7977.3,3408.3c-1-0.7-1.8-1.8-2.3-3.3c-0.5-1.4-0.8-3.1-0.8-5.1s0.3-3.7,0.8-5.1c0.5-1.4,1.3-2.5,2.3-3.3
		s2.2-1.1,3.6-1.1c1.4,0,2.6,0.4,3.6,1.1s1.8,1.8,2.3,3.3c0.5,1.4,0.8,3.1,0.8,5.1s-0.3,3.7-0.8,5.1s-1.3,2.5-2.3,3.3
		c-1,0.7-2.2,1.1-3.6,1.1C-7975.1,3409.4-7976.3,3409.1-7977.3,3408.3z M-7970.5,3405.4c0.8-1.3,1.2-3.1,1.2-5.4s-0.4-4.2-1.2-5.5
		s-1.8-2-3.2-2c-1.4,0-2.4,0.7-3.2,2c-0.8,1.3-1.2,3.1-1.2,5.5c0,2.3,0.4,4.1,1.2,5.4c0.8,1.3,1.8,2,3.2,2
		C-7972.3,3407.4-7971.3,3406.7-7970.5,3405.4z"/>
	<path class="st0" d="M-7964.2,3390.7h3.4l6.4,16.2h0.1l-0.1-3.8v-12.4h2.3v18.4h-3.4l-6.4-16.3l0,0l0.1,3.3v12.9h-2.3v-18.3
		H-7964.2z"/>
	<path class="st0" d="M-7947.7,3408.2c-1-0.8-1.7-2-2-3.8l2-0.7c0.2,1.2,0.7,2.1,1.3,2.7c0.6,0.6,1.4,0.9,2.3,0.9s1.5-0.3,1.9-0.7
		c0.4-0.5,0.7-1.2,0.7-2.2c0-0.7-0.1-1.3-0.4-1.8c-0.3-0.5-0.6-0.9-1.1-1.3c-0.4-0.3-1-0.7-1.7-1.1c-1-0.6-1.8-1-2.3-1.4
		c-0.5-0.4-0.9-0.8-1.3-1.5c-0.4-0.6-0.6-1.4-0.6-2.4c0-1.4,0.4-2.5,1.2-3.3c0.8-0.8,1.9-1.2,3.4-1.2c1.2,0,2.3,0.4,3.2,1.1
		s1.4,1.8,1.7,3.2l-1.8,0.6c-0.2-1-0.5-1.7-1-2.1c-0.5-0.5-1.2-0.7-2-0.7c-0.8,0-1.4,0.2-1.8,0.7s-0.6,1.1-0.6,1.8
		c0,0.5,0.1,1,0.4,1.3c0.3,0.4,0.6,0.7,1,1c0.4,0.3,0.9,0.6,1.6,1l0.5,0.3c0.8,0.5,1.5,0.9,2.1,1.4c0.6,0.4,1,1,1.4,1.8
		c0.4,0.7,0.6,1.6,0.6,2.7c0,1.5-0.4,2.7-1.3,3.6c-0.9,0.9-2.1,1.4-3.6,1.4C-7945.5,3409.4-7946.7,3409-7947.7,3408.2z"/>
</g>
<g>
	<path class="st1" d="M-8106.4,3390.3h5.3c2.8,0,4.9,0.8,6.3,2.5c1.4,1.7,2.1,4,2.1,6.9c0,3-0.7,5.4-2.1,7c-1.4,1.6-3.5,2.5-6.3,2.5
		h-5.3V3390.3z M-8101.4,3405.4c1.4,0,2.4-0.5,3-1.5c0.7-1,1-2.4,1-4.3c0-1.7-0.3-3.1-0.9-4.1c-0.6-1-1.6-1.4-2.8-1.4h-0.8v11.3
		H-8101.4z"/>
	<path class="st1" d="M-8091,3390.3h7l2.4,13.8l2.4-13.8h7.1v18.9h-4.7v-7.2l0.5-7.7h-0.2l-3.2,15h-3.7l-3.2-15h-0.2l0.5,7.8v7.1
		h-4.7V3390.3z"/>
	<path class="st1" d="M-8069.9,3390.3h7l2.4,13.8l2.4-13.8h7.1v18.9h-4.7v-7.2l0.5-7.7h-0.2l-3.2,15h-3.7l-3.2-15h-0.2l0.5,7.8v7.1
		h-4.7C-8069.9,3409.2-8069.9,3390.3-8069.9,3390.3z"/>
</g>
</svg>
