<?xml version="1.0" encoding="utf-8"?>
<!-- Generator: Adobe Illustrator 19.1.1, SVG Export Plug-In . SVG Version: 6.00 Build 0)  -->
<svg version="1.1" id="Layer_1" xmlns="http://www.w3.org/2000/svg" xmlns:xlink="http://www.w3.org/1999/xlink" x="0px" y="0px"
	 viewBox="0 0 168 24" style="enable-background:new 0 0 168 24;" xml:space="preserve">
<style type="text/css">
	.st0{fill:#FFFFFF;}
	.st1{fill:#17BED2;}
</style>
<g>
	<path class="st0" d="M60,20.7c-1-0.8-1.7-2-2-3.8l2-0.7c0.2,1.2,0.7,2.1,1.3,2.7s1.4,0.9,2.3,0.9c0.9,0,1.5-0.3,1.9-0.7
		c0.4-0.5,0.7-1.2,0.7-2.2c0-0.7-0.1-1.3-0.4-1.8c-0.3-0.5-0.6-0.9-1.1-1.3c-0.4-0.3-1-0.7-1.7-1.1c-1-0.6-1.8-1-2.3-1.4
		c-0.5-0.3-0.9-0.8-1.3-1.5c-0.4-0.6-0.6-1.4-0.6-2.4c0-1.4,0.4-2.5,1.2-3.3C60.8,3.4,61.9,3,63.4,3c1.2,0,2.3,0.4,3.2,1.1
		c0.9,0.7,1.4,1.8,1.7,3.2l-1.8,0.6c-0.2-1-0.5-1.7-1-2.1C65,5.2,64.3,5,63.4,5c-0.8,0-1.4,0.2-1.8,0.7C61.2,6.2,61,6.8,61,7.5
		c0,0.5,0.1,1,0.4,1.3c0.3,0.4,0.6,0.7,1,1c0.4,0.3,0.9,0.6,1.6,1l0.5,0.3c0.8,0.5,1.5,0.9,2.1,1.4c0.6,0.4,1,1,1.4,1.8
		c0.4,0.7,0.6,1.6,0.6,2.7c0,1.5-0.4,2.7-1.3,3.6c-0.9,0.9-2.1,1.4-3.6,1.4C62.2,21.9,61.1,21.5,60,20.7z"/>
	<path class="st0" d="M73.5,20.8c-1-0.7-1.8-1.8-2.3-3.3c-0.5-1.4-0.8-3.1-0.8-5.1c0-2,0.3-3.7,0.8-5.1c0.5-1.4,1.3-2.5,2.3-3.3
		S75.7,3,77,3s2.6,0.4,3.6,1.1c1,0.7,1.8,1.8,2.3,3.3c0.5,1.4,0.8,3.1,0.8,5.1c0,2-0.3,3.7-0.8,5.1s-1.3,2.5-2.3,3.3
		c-1,0.7-2.2,1.1-3.6,1.1S74.5,21.6,73.5,20.8z M80.3,17.9c0.8-1.3,1.2-3.1,1.2-5.4c0-2.3-0.4-4.2-1.2-5.5c-0.8-1.3-1.8-2-3.2-2
		c-1.4,0-2.4,0.7-3.2,2c-0.8,1.3-1.2,3.1-1.2,5.5c0,2.3,0.4,4.1,1.2,5.4c0.8,1.3,1.8,2,3.2,2C78.4,19.8,79.5,19.2,80.3,17.9z"/>
	<path class="st0" d="M86.6,3.2H89v16.4h6v2.1h-8.4V3.2z"/>
	<path class="st0" d="M97.6,20.4c-0.9-1-1.4-2.4-1.4-4.3V3.2h2.3v13c0,1.2,0.3,2.1,0.8,2.7s1.3,0.9,2.3,0.9s1.8-0.3,2.3-0.9
		c0.6-0.6,0.8-1.5,0.8-2.7v-13h2.3V16c0,1.9-0.5,3.4-1.4,4.4c-0.9,1-2.3,1.5-4.1,1.5C99.9,21.9,98.5,21.4,97.6,20.4z"/>
	<path class="st0" d="M113,5.3h-4.2v-2h10.7v2h-4.2v16.4H113V5.3z"/>
	<path class="st0" d="M121.4,3.2h2.3v18.4h-2.3V3.2z"/>
	<path class="st0" d="M129.7,20.8c-1-0.7-1.8-1.8-2.3-3.3c-0.5-1.4-0.8-3.1-0.8-5.1c0-2,0.3-3.7,0.8-5.1c0.5-1.4,1.3-2.5,2.3-3.3
		s2.2-1.1,3.6-1.1c1.4,0,2.6,0.4,3.6,1.1s1.8,1.8,2.3,3.3c0.5,1.4,0.8,3.1,0.8,5.1c0,2-0.3,3.7-0.8,5.1c-0.5,1.4-1.3,2.5-2.3,3.3
		c-1,0.7-2.2,1.1-3.6,1.1C131.9,21.9,130.7,21.6,129.7,20.8z M136.5,17.9c0.8-1.3,1.2-3.1,1.2-5.4c0-2.3-0.4-4.2-1.2-5.5
		c-0.8-1.3-1.8-2-3.2-2s-2.4,0.7-3.2,2c-0.8,1.3-1.2,3.1-1.2,5.5c0,2.3,0.4,4.1,1.2,5.4s1.8,2,3.2,2S135.7,19.2,136.5,17.9z"/>
	<path class="st0" d="M142.8,3.2h3.4l6.4,16.2h0.1l-0.1-3.8V3.2h2.3v18.4h-3.4l-6.4-16.3h0l0.1,3.3v12.9h-2.3V3.2z"/>
	<path class="st0" d="M159.3,20.7c-1-0.8-1.7-2-2-3.8l2-0.7c0.2,1.2,0.7,2.1,1.3,2.7s1.4,0.9,2.3,0.9c0.9,0,1.5-0.3,1.9-0.7
		c0.4-0.5,0.7-1.2,0.7-2.2c0-0.7-0.1-1.3-0.4-1.8c-0.3-0.5-0.6-0.9-1.1-1.3c-0.4-0.3-1-0.7-1.7-1.1c-1-0.6-1.8-1-2.3-1.4
		s-0.9-0.8-1.3-1.5c-0.4-0.6-0.6-1.4-0.6-2.4c0-1.4,0.4-2.5,1.2-3.3c0.8-0.8,1.9-1.2,3.4-1.2c1.2,0,2.3,0.4,3.2,1.1
		c0.9,0.7,1.4,1.8,1.7,3.2l-1.8,0.6c-0.2-1-0.5-1.7-1-2.1c-0.5-0.5-1.2-0.7-2-0.7c-0.8,0-1.4,0.2-1.8,0.7c-0.4,0.5-0.6,1.1-0.6,1.8
		c0,0.5,0.1,1,0.4,1.3c0.3,0.4,0.6,0.7,1,1c0.4,0.3,0.9,0.6,1.6,1l0.5,0.3c0.8,0.5,1.5,0.9,2.1,1.4c0.6,0.4,1,1,1.4,1.8
		c0.4,0.7,0.6,1.6,0.6,2.7c0,1.5-0.4,2.7-1.3,3.6c-0.9,0.9-2.1,1.4-3.6,1.4C161.5,21.9,160.3,21.5,159.3,20.7z"/>
</g>
<g>
	<path class="st1" d="M0.6,2.8h5.3c2.8,0,4.9,0.8,6.3,2.5c1.4,1.7,2.1,4,2.1,6.9c0,3-0.7,5.4-2.1,7c-1.4,1.6-3.5,2.5-6.3,2.5H0.6
		V2.8z M5.6,17.9c1.4,0,2.4-0.5,3-1.5c0.7-1,1-2.4,1-4.3C9.6,10.4,9.3,9,8.7,8C8.1,7,7.1,6.6,5.9,6.6H5.1v11.3H5.6z"/>
	<path class="st1" d="M16,2.8h7l2.4,13.8l2.4-13.8h7.1v18.9h-4.7l0-7.2l0.5-7.7h-0.2l-3.2,15h-3.7l-3.2-15h-0.2l0.5,7.8l0,7.1H16
		V2.8z"/>
	<path class="st1" d="M37.1,2.8h7l2.4,13.8l2.4-13.8H56v18.9h-4.7l0-7.2l0.5-7.7h-0.2l-3.2,15h-3.7l-3.2-15h-0.2l0.5,7.8l0,7.1h-4.7
		V2.8z"/>
</g>
</svg>
