<?xml version="1.0" encoding="utf-8"?>
<!-- Generator: Adobe Illustrator 19.1.1, SVG Export Plug-In . SVG Version: 6.00 Build 0)  -->
<svg version="1.1" xmlns="http://www.w3.org/2000/svg" xmlns:xlink="http://www.w3.org/1999/xlink" x="0px" y="0px"
	 viewBox="0 0 4099.4 648.8" style="enable-background:new 0 0 4099.4 648.8;" xml:space="preserve">
<style type="text/css">
	.st0{fill:none;stroke:#2B9199;stroke-width:14;stroke-linecap:round;stroke-miterlimit:10;}
	.st1{fill:none;stroke:#17BED2;stroke-width:14;stroke-linecap:round;stroke-miterlimit:10;}
	.st2{fill:none;stroke:#1DA8B2;stroke-width:14;stroke-linecap:round;stroke-miterlimit:10;}
	.st3{fill:#17BED2;}
	.st4{fill:#1DA8B2;}
	.st5{fill:#2B9199;}
</style>
<g id="background">
</g>
<g id="object">
	<g>
		<g>
			<path class="st0" d="M2473.8,201.4h1012.4c33,0,74.3,22.9,91.8,50.9l92.3,147.4c17.5,28,58.8,50.9,91.8,50.9h252.1
				c33,0,60-27,60-60v-4.6c0-33-1.4-87-3.2-119.9l-0.3-4.7c-1.8-33-30.2-59.9-63.2-59.9h-252.1c-33,0-60-27-60-60V91.4
				c0-33,27-60,60-60h113.7"/>
		</g>
		<g>
			<path class="st1" d="M2324.8,448.6h-759.5c-33,0-74.3-22.9-91.8-50.9l-92.3-147.4c-17.5-28-58.8-50.9-91.8-50.9H80.3
				c-33,0-60,27-60,60v4.6c0,33,1.4,87,3.2,119.9l0.3,4.7c1.8,33,30.2,59.9,63.2,59.9h1209c33,0,60,27,60,60v49.9c0,33-27,60-60,60
				h-113.7"/>
		</g>
		<g>
			<path class="st2" d="M1515.2,201.4h759.5c33,0,73.6,23.3,90.2,51.8l84.8,145.4c16.6,28.5,57.2,51.8,90.2,51.8h1012.4"/>
		</g>
		<polygon class="st3" points="2344.9,449.7 2313.4,481.1 2303.4,471.1 2324.8,449.7 2303.4,428.3 2313.4,418.3 		"/>
		<polygon class="st3" points="1200.8,617.4 1169.4,648.8 1159.4,638.8 1180.8,617.4 1159.4,596 1169.4,586 		"/>
		<polygon class="st4" points="3574.5,450.5 3543.1,481.9 3533.1,471.9 3554.5,450.5 3533.1,429.1 3543.1,419.1 		"/>
		<polygon class="st5" points="3896.5,31.4 3865,62.8 3855,52.8 3876.4,31.4 3855,10 3865,0 		"/>
	</g>
	<g>
		<path class="st3" d="M144.9,347.7c0.1,5.5,2.9,16.1,21,16.1c9.8,0,20.8-2.4,20.8-12.9c0-7.8-7.5-9.8-18-12.3l-10.7-2.5
			c-16.1-3.7-31.6-7.3-31.6-29.2c0-11.1,6-30.6,38.2-30.6c30.5,0,38.6,19.9,38.8,32.1h-19.9c-0.6-4.4-2.2-15-20.4-15
			c-7.9,0-17.3,2.9-17.3,11.9c0,7.8,6.4,9.4,10.5,10.4l24.2,6c13.6,3.3,26,8.9,26,26.7c0,29.9-30.5,32.5-39.2,32.5
			c-36.3,0-42.5-20.9-42.5-33.2H144.9z"/>
		<path class="st3" d="M264.7,378.3h-20.8v-81.8h-30v-17.6h80.9v17.6h-30V378.3z"/>
		<path class="st3" d="M386.7,343.5c0,26.2-15.8,37.4-40.9,37.4c-9.1,0-22.7-2.2-31.6-12c-5.4-6.1-7.5-14.1-7.8-24.1v-65.9h21.2
			v64.5c0,13.8,8,19.9,17.7,19.9c14.3,0,20.1-6.9,20.1-19v-65.5h21.2V343.5z"/>
		<path class="st3" d="M407,278.9h43.9c33.5,0,40.4,28.5,40.4,47.4c0,21.3-8.4,52.1-41.3,52.1H407V278.9z M427.4,361.1h20.2
			c16.9,0,22.6-17,22.6-33.4c0-29.4-14-31.7-22.8-31.7h-19.9V361.1z"/>
		<path class="st3" d="M544,378.3h-20.8v-37.5l-34.3-61.9h24.5l20.6,43.2l19.7-43.2h23.5L544,341V378.3z"/>
		<path class="st3" d="M671.5,276.2c13.2,0,47.8,5.7,47.8,52.3c0,46.7-34.6,52.3-47.8,52.3s-47.8-5.7-47.8-52.3
			C623.7,281.9,658.3,276.2,671.5,276.2z M671.5,363.3c11.2,0,27-6.9,27-34.8s-15.8-34.8-27-34.8s-27,6.9-27,34.8
			S660.3,363.3,671.5,363.3z"/>
		<path class="st3" d="M756.7,378.3h-20.8v-99.4h70.8v17.6h-50v22.4h43.8v17.6h-43.8V378.3z"/>
		<path class="st3" d="M919.6,278.9H939v99.4h-20.8l-40.6-70.9h-0.3v70.9H858v-99.4h21.9l39.5,69.2h0.3V278.9z"/>
		<path class="st3" d="M1032.1,296.5h-52.8v20.9h48.5V335h-48.5v25.8h55.1v17.6H959v-99.4h73.1V296.5z"/>
		<path class="st3" d="M1124.4,296.5h-52.8v20.9h48.5V335h-48.5v25.8h55.1v17.6h-75.5v-99.4h73.1V296.5z"/>
		<path class="st3" d="M1143.7,278.9h43.9c33.5,0,40.4,28.5,40.4,47.4c0,21.3-8.4,52.1-41.3,52.1h-43.1V278.9z M1164,361.1h20.2
			c16.9,0,22.6-17,22.6-33.4c0-29.4-14-31.7-22.8-31.7H1164V361.1z"/>
		<path class="st3" d="M1258.5,347.7c0.1,5.5,2.9,16.1,21,16.1c9.8,0,20.8-2.4,20.8-12.9c0-7.8-7.5-9.8-18-12.3l-10.7-2.5
			c-16.1-3.7-31.6-7.3-31.6-29.2c0-11.1,6-30.6,38.2-30.6c30.5,0,38.6,19.9,38.8,32.1h-19.9c-0.6-4.4-2.2-15-20.4-15
			c-7.9,0-17.3,2.9-17.3,11.9c0,7.8,6.4,9.4,10.5,10.4l24.2,6c13.6,3.3,26,8.9,26,26.7c0,29.9-30.5,32.5-39.2,32.5
			c-36.3,0-42.5-20.9-42.5-33.2H1258.5z"/>
	</g>
	<g>
		<path class="st3" d="M1596.3,347.7c0.1,5.5,2.9,16.1,21,16.1c9.8,0,20.8-2.4,20.8-12.9c0-7.8-7.5-9.8-18-12.3l-10.7-2.5
			c-16.1-3.7-31.6-7.3-31.6-29.2c0-11.1,6-30.6,38.2-30.6c30.5,0,38.6,19.9,38.8,32.1H1635c-0.6-4.4-2.2-15-20.4-15
			c-7.9,0-17.3,2.9-17.3,11.9c0,7.8,6.4,9.4,10.5,10.4l24.2,6c13.6,3.3,26,8.9,26,26.7c0,29.9-30.5,32.5-39.2,32.5
			c-36.3,0-42.5-20.9-42.5-33.2H1596.3z"/>
		<path class="st3" d="M1717.2,276.2c13.2,0,47.8,5.7,47.8,52.3c0,46.7-34.6,52.3-47.8,52.3s-47.8-5.7-47.8-52.3
			C1669.4,281.9,1704.1,276.2,1717.2,276.2z M1717.2,363.3c11.2,0,27-6.9,27-34.8s-15.8-34.8-27-34.8s-27,6.9-27,34.8
			S1706,363.3,1717.2,363.3z"/>
		<path class="st3" d="M1802.4,360.3h49.4v18h-70.2v-99.4h20.8V360.3z"/>
		<path class="st3" d="M1945.8,343.5c0,26.2-15.8,37.4-40.9,37.4c-9.1,0-22.7-2.2-31.6-12c-5.4-6.1-7.5-14.1-7.8-24.1v-65.9h21.2
			v64.5c0,13.8,8,19.9,17.7,19.9c14.3,0,20.1-6.9,20.1-19v-65.5h21.2V343.5z"/>
		<path class="st3" d="M2008.4,378.3h-20.8v-81.8h-30v-17.6h80.9v17.6h-30V378.3z"/>
		<path class="st3" d="M2069.9,378.3h-20.8v-99.4h20.8V378.3z"/>
		<path class="st3" d="M2132.6,276.2c13.2,0,47.8,5.7,47.8,52.3c0,46.7-34.6,52.3-47.8,52.3s-47.8-5.7-47.8-52.3
			C2084.9,281.9,2119.5,276.2,2132.6,276.2z M2132.6,363.3c11.2,0,27-6.9,27-34.8s-15.8-34.8-27-34.8s-27,6.9-27,34.8
			S2121.4,363.3,2132.6,363.3z"/>
		<path class="st3" d="M2257.7,278.9h19.4v99.4h-20.8l-40.6-70.9h-0.3v70.9h-19.4v-99.4h21.9l39.5,69.2h0.3V278.9z"/>
	</g>
	<g>
		<path class="st4" d="M2575.2,378.3h-20.8v-99.4h20.8V378.3z"/>
		<path class="st4" d="M2655.2,278.9h19.4v99.4h-20.8l-40.6-70.9h-0.3v70.9h-19.4v-99.4h21.9l39.5,69.2h0.3V278.9z"/>
		<path class="st4" d="M2736.8,378.3H2716v-81.8h-30v-17.6h80.9v17.6h-30V378.3z"/>
		<path class="st4" d="M2852.3,296.5h-52.8v20.9h48.5V335h-48.5v25.8h55.1v17.6h-75.5v-99.4h73.1V296.5z"/>
		<path class="st4" d="M2918.2,324.7h41.5v53.6h-13.8l-2.1-12.5c-5.3,6.1-12.9,15.1-31,15.1c-24,0-45.7-17.2-45.7-52.1
			c0-27.1,15.1-52.8,48.6-52.6c30.5,0,42.5,19.8,43.6,33.5h-20.8c0-3.9-7.1-16.3-21.7-16.3c-14.8,0-28.5,10.2-28.5,35.7
			c0,27.1,14.8,34.2,28.9,34.2c4.6,0,19.8-1.8,24.1-21.9h-23.1V324.7z"/>
		<path class="st4" d="M2979.3,278.9h50.3c26.4,0,31.3,19.5,31.3,28.1c0,10.9-5.5,20.4-15.4,23.7c8.2,3.6,12.6,6.6,12.6,25.2
			c0,14.5,0,18.1,4.4,19.8v2.6h-23c-1.4-4.7-2.2-9.8-2.2-20.1c0-13.6-0.8-18.8-16.2-18.8h-21.5v38.9h-20.4V278.9z M3024,322.6
			c10.8,0,16.1-3.7,16.1-13.6c0-5.3-2.4-13-14.5-13h-25.9v26.6H3024z"/>
		<path class="st4" d="M3093.4,378.3h-21.9l35.4-99.4h24l35,99.4h-22.6l-6.4-20.5h-36.7L3093.4,378.3z M3105.8,340.6h25.3
			l-12.3-39.3h-0.3L3105.8,340.6z"/>
		<path class="st4" d="M3209,378.3h-20.8v-81.8h-30v-17.6h80.9v17.6h-30V378.3z"/>
		<path class="st4" d="M3270.5,378.3h-20.8v-99.4h20.8V378.3z"/>
		<path class="st4" d="M3333.2,276.2c13.2,0,47.8,5.7,47.8,52.3c0,46.7-34.6,52.3-47.8,52.3s-47.8-5.7-47.8-52.3
			C3285.4,281.9,3320,276.2,3333.2,276.2z M3333.2,363.3c11.2,0,27-6.9,27-34.8s-15.8-34.8-27-34.8s-27,6.9-27,34.8
			S3322,363.3,3333.2,363.3z"/>
		<path class="st4" d="M3458.2,278.9h19.4v99.4h-20.8l-40.6-70.9h-0.3v70.9h-19.4v-99.4h21.9l39.5,69.2h0.3V278.9z"/>
	</g>
	<g>
		<path class="st5" d="M3777.1,278.9h43.9c33.5,0,40.4,28.5,40.4,47.4c0,21.3-8.4,52.1-41.3,52.1h-43.1V278.9z M3797.5,361.1h20.2
			c16.9,0,22.6-17,22.6-33.4c0-29.4-14-31.7-22.8-31.7h-19.9V361.1z"/>
		<path class="st5" d="M3920.4,276.2c13.2,0,47.8,5.7,47.8,52.3c0,46.7-34.6,52.3-47.8,52.3s-47.8-5.7-47.8-52.3
			C3872.7,281.9,3907.3,276.2,3920.4,276.2z M3920.4,363.3c11.2,0,27-6.9,27-34.8s-15.8-34.8-27-34.8s-27,6.9-27,34.8
			S3909.2,363.3,3920.4,363.3z"/>
	</g>
</g>
</svg>
