<?xml version="1.0" encoding="utf-8"?>
<!-- Generator: Adobe Illustrator 19.1.1, SVG Export Plug-In . SVG Version: 6.00 Build 0)  -->
<svg version="1.1" id="Layer_1" xmlns="http://www.w3.org/2000/svg" xmlns:xlink="http://www.w3.org/1999/xlink" x="0px" y="0px"
	 viewBox="1605 -308.8 3275 648.8" style="enable-background:new 1605 -308.8 3275 648.8;" xml:space="preserve">
<style type="text/css">
	.st0{fill:none;stroke:#2B9199;stroke-width:14;stroke-linecap:round;stroke-miterlimit:10;}
	.st1{fill:none;stroke:#17BED2;stroke-width:14;stroke-linecap:round;stroke-miterlimit:10;}
	.st2{fill:none;stroke:#1DA8B2;stroke-width:14;stroke-linecap:round;stroke-miterlimit:10;}
	.st3{fill:#17BED2;}
	.st4{fill:#1DA8B2;}
	.st5{fill:#2B9199;}
	.st6{enable-background:new    ;}
</style>
<g id="background">
</g>
<g id="object">
	<g>
		<g>
			<path class="st0" d="M2887.1-107.4h423.8c33,0,74.3,22.9,91.8,50.9L3495,90.9c17.5,28,58.8,50.9,91.8,50.9h1224.7
				c33,0,60-27,60-60v-4.6c0-33-1.4-87-3.2-119.9l-0.3-4.7c-1.8-33-30.2-59.9-63.2-59.9H3580.3c-33,0-60-27-60-60v-50.1
				c0-33,27-60,60-60H3694"/>
		</g>
		<g>
			<path class="st1" d="M2738.1,139.8h-423.7c-33,0-74.3-22.9-91.8-50.9l-92.3-147.4c-17.5-28-58.8-50.9-91.8-50.9h-363.9
				c-33,0-60,27-60,60v4.6c0,33,1.4,87,3.2,119.9l0.3,4.7c1.8,33,30.2,59.9,63.2,59.9H2045c33,0,60,27,60,60v49.9c0,33-27,60-60,60
				h-113.7"/>
		</g>
		<g>
			<path class="st2" d="M2264.2-107.4H2688c33,0,73.6,23.3,90.2,51.8L2863,89.8c16.6,28.5,57.2,51.8,90.2,51.8H3377"/>
		</g>
		<polygon class="st3" points="2758.1,140.9 2726.7,172.3 2716.7,162.3 2738.1,140.9 2716.7,119.5 2726.7,109.5 		"/>
		<polygon class="st3" points="1949.8,308.6 1918.4,340 1908.4,330 1929.8,308.6 1908.4,287.2 1918.4,277.2 		"/>
		<polygon class="st4" points="3399.1,141.7 3367.7,173.1 3357.7,163.1 3379.1,141.7 3357.7,120.3 3367.7,110.3 		"/>
		<polygon class="st5" points="3721.1,-277.4 3689.7,-246 3679.7,-256 3701.1,-277.4 3679.7,-298.8 3689.7,-308.8 		"/>
	</g>
	<g class="st6">
		<path class="st3" d="M1715.9,69.5h-20.8v-81.8h-30v-17.6h80.9v17.6h-30V69.5z"/>
		<path class="st3" d="M1778.3,24.9v44.6h-20.8v-99.4h20.8V7.7h38.8v-37.7h20.8v99.4h-20.8V24.9H1778.3z"/>
		<path class="st3" d="M1877.3,69.5h-20.8v-99.4h20.8V69.5z"/>
		<path class="st3" d="M1957.4-29.9h19.4v99.4H1956l-40.6-70.9h-0.3v70.9h-19.4v-99.4h21.9l39.5,69.2h0.3V-29.9z"/>
		<path class="st3" d="M2019,69.5h-20.8v-99.4h20.8v40.4l37.9-40.4h26.9l-40.6,40.7l42.9,58.7h-26.7l-30.7-43.6l-9.7,10V69.5z"/>
	</g>
	<g class="st6">
		<path class="st3" d="M2351.3,69.5h-20.8v-99.4h45.4c19.2,0,30.9,12.3,30.9,31.8c0,9-5,31.7-31.7,31.7h-23.8V69.5z M2370.5,16.5
			c15.5,0,15.5-11.1,15.5-15.5c0-9.7-5.4-13.7-18.3-13.7h-16.5v29.2H2370.5z"/>
		<path class="st3" d="M2443.7,51.5h49.4v18h-70.2v-99.4h20.8V51.5z"/>
		<path class="st3" d="M2521.6,69.5h-21.9l35.4-99.4h24l35,99.4h-22.6l-6.4-20.5h-36.7L2521.6,69.5z M2534.1,31.8h25.3l-12.3-39.3
			h-0.3L2534.1,31.8z"/>
		<path class="st3" d="M2668.1-29.9h19.4v99.4h-20.8l-40.6-70.9h-0.3v70.9h-19.4v-99.4h21.9l39.5,69.2h0.3V-29.9z"/>
	</g>
	<g class="st6">
		<path class="st4" d="M3047.7-29.9h43.9c33.5,0,40.4,28.5,40.4,47.4c0,21.3-8.4,52.1-41.3,52.1h-43.1V-29.9z M3068.1,52.3h20.2
			c16.9,0,22.6-17,22.6-33.4c0-29.4-14-31.7-22.8-31.7h-19.9V52.3z"/>
		<path class="st4" d="M3191-32.6c13.2,0,47.8,5.7,47.8,52.3c0,46.7-34.6,52.3-47.8,52.3s-47.8-5.7-47.8-52.3
			C3143.2-26.9,3177.9-32.6,3191-32.6z M3191,54.5c11.2,0,27-6.9,27-34.8c0-27.8-15.8-34.8-27-34.8s-27,6.9-27,34.8
			C3164,47.6,3179.8,54.5,3191,54.5z"/>
	</g>
	<g class="st6">
		<path class="st5" d="M3597.1,15.9h41.5v53.6h-13.8l-2.1-12.5c-5.3,6.1-12.9,15.1-31,15.1c-24,0-45.7-17.2-45.7-52.1
			c0-27.1,15.1-52.8,48.6-52.6c30.5,0,42.5,19.8,43.6,33.5h-20.8c0-3.9-7.1-16.3-21.7-16.3c-14.8,0-28.5,10.2-28.5,35.7
			c0,27.1,14.8,34.2,28.9,34.2c4.6,0,19.8-1.8,24.1-21.9h-23.1V15.9z"/>
		<path class="st5" d="M3731.3-12.3h-52.8V8.6h48.5v17.6h-48.5v25.8h55.1v17.6h-75.5v-99.4h73.1V-12.3z"/>
		<path class="st5" d="M3811.2-29.9h19.4v99.4h-20.8l-40.6-70.9h-0.3v70.9h-19.4v-99.4h21.9l39.5,69.2h0.3V-29.9z"/>
		<path class="st5" d="M3923.6-12.3h-52.8V8.6h48.5v17.6h-48.5v25.8h55.1v17.6h-75.5v-99.4h73.1V-12.3z"/>
		<path class="st5" d="M3942.8-29.9h50.3c26.4,0,31.3,19.5,31.3,28.1c0,10.9-5.5,20.4-15.4,23.7c8.2,3.6,12.6,6.6,12.6,25.2
			c0,14.5,0,18.1,4.4,19.8v2.6h-23c-1.4-4.7-2.2-9.8-2.2-20.1c0-13.6-0.8-18.8-16.2-18.8h-21.5v38.9h-20.4V-29.9z M3987.6,13.8
			c10.8,0,16.1-3.7,16.1-13.6c0-5.3-2.4-13-14.5-13h-25.9v26.6H3987.6z"/>
		<path class="st5" d="M4056.9,69.5h-21.9l35.4-99.4h24l35,99.4h-22.6l-6.4-20.5h-36.7L4056.9,69.5z M4069.4,31.8h25.3l-12.3-39.3
			h-0.3L4069.4,31.8z"/>
		<path class="st5" d="M4172.6,69.5h-20.8v-81.8h-30v-17.6h80.9v17.6h-30V69.5z"/>
		<path class="st5" d="M4288.1-12.3h-52.8V8.6h48.5v17.6h-48.5v25.8h55.1v17.6h-75.5v-99.4h73.1V-12.3z"/>
		<path class="st5" d="M4366.6,51.5h49.4v18h-70.2v-99.4h20.8V51.5z"/>
		<path class="st5" d="M4503.5-12.3h-52.8V8.6h48.5v17.6h-48.5v25.8h55.1v17.6h-75.5v-99.4h73.1V-12.3z"/>
		<path class="st5" d="M4536.9,69.5H4515l35.4-99.4h24l35,99.4h-22.6l-6.4-20.5h-36.7L4536.9,69.5z M4549.4,31.8h25.3l-12.3-39.3
			h-0.3L4549.4,31.8z"/>
		<path class="st5" d="M4622.7-29.9h43.9c33.5,0,40.4,28.5,40.4,47.4c0,21.3-8.4,52.1-41.3,52.1h-43.1V-29.9z M4643.1,52.3h20.2
			c16.9,0,22.6-17,22.6-33.4c0-29.4-14-31.7-22.8-31.7h-19.9V52.3z"/>
		<path class="st5" d="M4737.5,38.9c0.1,5.5,2.9,16.1,21,16.1c9.8,0,20.8-2.4,20.8-12.9c0-7.8-7.5-9.8-18-12.3l-10.7-2.5
			c-16.1-3.7-31.6-7.3-31.6-29.2c0-11.1,6-30.6,38.2-30.6c30.5,0,38.6,19.9,38.8,32.1h-19.9c-0.6-4.4-2.2-15-20.4-15
			c-7.9,0-17.3,2.9-17.3,11.9c0,7.8,6.4,9.4,10.5,10.4l24.2,6c13.6,3.3,26,8.9,26,26.7c0,29.9-30.5,32.5-39.2,32.5
			c-36.3,0-42.5-20.9-42.5-33.2H4737.5z"/>
	</g>
</g>
</svg>
