<?xml version="1.0" encoding="utf-8"?>
<!-- Generator: Adobe Illustrator 19.1.1, SVG Export Plug-In . SVG Version: 6.00 Build 0)  -->
<svg version="1.1" id="Layer_1" xmlns="http://www.w3.org/2000/svg" xmlns:xlink="http://www.w3.org/1999/xlink" x="0px" y="0px"
	 viewBox="1570 -44.8 4099.4 648.8" style="enable-background:new 1570 -44.8 4099.4 648.8;" xml:space="preserve">
<style type="text/css">
	.st0{fill:none;stroke:#00A2F4;stroke-width:14;stroke-linecap:round;stroke-miterlimit:10;}
	.st1{fill:#00A2F4;}
</style>
<g id="background">
</g>
<g id="object">
	<g>
		<g>
			<path class="st0" d="M3918.1,160.6h941.4c33,0,74.3,22.9,91.8,50.9l92.3,147.4c17.5,28,58.8,50.9,91.8,50.9h453.1
				c33,0,60-27,60-60v-4.6c0-33-1.4-87-3.2-119.9l-0.3-4.7c-1.8-33-30.2-59.9-63.2-59.9h-453.1c-33,0-60-27-60-60V50.6
				c0-33,27-60,60-60h492.7"/>
		</g>
		<g>
			<path class="st0" d="M3769.1,407.8H2628.5c-33,0-74.3-22.9-91.8-50.9l-92.3-147.4c-17.5-28-58.8-50.9-91.8-50.9h-698
				c-33,0-60,27-60,60v4.6c0,33,1.4,87,3.2,119.9l0.3,4.7c1.8,33,30.2,59.9,63.2,59.9h697.9c33,0,60,27,60,60v49.9c0,33-27,60-60,60
				h-83.7"/>
		</g>
		<g>
			<path class="st0" d="M2578.4,160.6H3719c33,0,73.6,23.3,90.2,51.8l84.8,145.4c16.6,28.5,57.2,51.8,90.2,51.8h941.4"/>
		</g>
		<polygon class="st1" points="3789.2,408.9 3757.7,440.3 3747.7,430.3 3769.1,408.9 3747.7,387.5 3757.7,377.5 		"/>
		<polygon class="st1" points="2294.1,576.6 2262.7,608 2252.7,598 2274.1,576.6 2252.7,555.2 2262.7,545.2 		"/>
		<polygon class="st1" points="4947.8,409.7 4916.4,441.1 4906.4,431.1 4927.8,409.7 4906.4,388.3 4916.4,378.3 		"/>
		<polygon class="st1" points="5648.8,-9.4 5617.3,22 5607.3,12 5628.7,-9.4 5607.3,-30.8 5617.3,-40.8 		"/>
	</g>
</g>
<g>
	<path class="st1" d="M1698,337.6v-37l-34.5-62.1h22.6l22.2,42.3h0.5l22.3-42.3h22.3l-34.6,62.1v37H1698z"/>
	<path class="st1" d="M1837.2,250.5c8.6,9.2,12.9,21.7,12.9,37.5c0,15.8-4.3,28.3-12.9,37.5c-8.6,9.2-20.3,13.8-34.9,13.8
		c-14.7,0-26.3-4.6-34.9-13.8c-8.6-9.2-12.9-21.7-12.9-37.5c0-15.8,4.3-28.3,12.9-37.5c8.6-9.2,20.2-13.8,34.9-13.8
		S1828.6,241.3,1837.2,250.5z M1782.9,263.2c-4.9,6.1-7.3,14.4-7.3,24.8c0,10.4,2.4,18.6,7.2,24.7c4.8,6.1,11.3,9.1,19.5,9.1
		c8.1,0,14.6-3,19.4-9.1c4.8-6.1,7.2-14.4,7.2-24.7c0-10.4-2.4-18.7-7.2-24.8c-4.8-6.1-11.3-9.2-19.4-9.2S1787.7,257.1,1782.9,263.2
		z"/>
	<path class="st1" d="M1884.2,300.5c0,6.5,1.8,11.5,5.4,15.3c3.7,3.8,8.8,5.8,15.4,5.8c6.6,0,11.7-1.9,15.3-5.8
		c3.6-3.7,5.4-8.8,5.4-15.3v-62.1h20.8v64.1c0,11-3.8,19.9-11.3,26.6c-7.6,6.8-17.6,10.2-30.2,10.2c-12.6,0-22.8-3.4-30.3-10.2
		c-7.5-6.7-11.3-15.6-11.3-26.6v-64.1h20.8V300.5z"/>
	<path class="st1" d="M1983.8,337.6h-20.8v-99.2h41c11.3,0,20.2,2.8,26.5,8.5c6.2,5.6,9.3,13.3,9.3,23.2c0,6.5-1.6,12.2-4.7,17.2
		c-3.2,5.1-7.6,8.8-13.3,11l20.9,39.4h-23.5l-18.5-36.3h-17V337.6z M1983.8,286.3h18.2c5.2,0,9.3-1.4,12.2-4.2
		c2.9-2.8,4.3-6.7,4.3-11.6c0-4.8-1.5-8.7-4.5-11.5c-3-2.8-7.1-4.3-12.2-4.3h-18V286.3z"/>
	<path class="st1" d="M2083.8,337.6v-99.2h20.8v99.2H2083.8z"/>
	<path class="st1" d="M2159.2,238.4c14.9,0,26.5,4.3,34.8,12.8c8.3,8.6,12.5,20.8,12.5,36.4c0,15.7-4.2,28-12.5,36.8
		c-8.3,8.8-19.9,13.2-34.8,13.2H2121v-99.2H2159.2z M2141.8,320.4h15c9.3,0,16.4-2.8,21.2-8.3c4.9-5.6,7.4-13.7,7.4-24.4
		c0-10.4-2.5-18.3-7.4-23.9c-4.9-5.5-12-8.3-21.2-8.3h-15V320.4z"/>
	<path class="st1" d="M2285.6,337.6h-65.7v-99.2h65.7v17.1h-45v23.9h42.4v15.9h-42.4v25h45V337.6z"/>
	<path class="st1" d="M2358,313.5h-34.8l-7.6,24.1h-21.3l34.4-99.2h24.4l34.5,99.2h-22.1L2358,313.5z M2327.6,298h25.9l-12.7-40.6
		h-0.5L2327.6,298z"/>
</g>
<g>
	<path class="st1" d="M2702.4,250.5c8.6,9.2,12.9,21.7,12.9,37.5c0,15.8-4.3,28.3-12.9,37.5c-8.6,9.2-20.3,13.8-34.9,13.8
		c-14.7,0-26.3-4.6-34.9-13.8c-8.6-9.2-12.9-21.7-12.9-37.5c0-15.8,4.3-28.3,12.9-37.5c8.6-9.2,20.2-13.8,34.9-13.8
		C2682.2,236.7,2693.8,241.3,2702.4,250.5z M2648.1,263.2c-4.9,6.1-7.3,14.4-7.3,24.8c0,10.4,2.4,18.6,7.2,24.7
		c4.8,6.1,11.3,9.1,19.5,9.1c8.1,0,14.6-3,19.4-9.1c4.8-6.1,7.2-14.4,7.2-24.7c0-10.4-2.4-18.7-7.2-24.8c-4.8-6.1-11.3-9.2-19.4-9.2
		C2659.4,254,2652.9,257.1,2648.1,263.2z"/>
	<path class="st1" d="M2749.4,300.5c0,6.5,1.8,11.5,5.4,15.3c3.7,3.8,8.8,5.8,15.4,5.8c6.6,0,11.7-1.9,15.3-5.8
		c3.6-3.7,5.4-8.8,5.4-15.3v-62.1h20.8v64.1c0,11-3.8,19.9-11.3,26.6c-7.6,6.8-17.6,10.2-30.2,10.2c-12.6,0-22.8-3.4-30.3-10.2
		c-7.5-6.7-11.3-15.6-11.3-26.6v-64.1h20.8V300.5z"/>
	<path class="st1" d="M2849,337.6h-20.8v-99.2h41c11.3,0,20.2,2.8,26.5,8.5c6.2,5.6,9.3,13.3,9.3,23.2c0,6.5-1.6,12.2-4.7,17.2
		c-3.2,5.1-7.6,8.8-13.3,11l20.9,39.4h-23.5l-18.5-36.3h-17V337.6z M2849,286.3h18.2c5.2,0,9.3-1.4,12.2-4.2
		c2.9-2.8,4.3-6.7,4.3-11.6c0-4.8-1.5-8.7-4.5-11.5c-3-2.8-7.1-4.3-12.2-4.3h-18V286.3z"/>
	<path class="st1" d="M2958.5,325.6c-8.4-9.2-12.6-21.7-12.6-37.7c0-15.9,4.2-28.4,12.7-37.6c8.4-9.1,19.8-13.7,34.2-13.7
		c12,0,22.1,3.4,30.2,10.3c8.2,7,12.6,16,13.4,27h-20.2c-1-6.1-3.6-11-7.8-14.6c-4.3-3.7-9.5-5.5-15.5-5.5c-7.8,0-14.1,3-18.8,9.1
		c-4.7,6.2-7,14.5-7,24.9c0,10.6,2.3,18.9,6.9,25c4.6,6.1,10.9,9.2,18.9,9.2c6.1,0,11.3-1.7,15.5-5.1c4.2-3.4,6.8-8,7.9-13.9h20.2
		c-1.1,11-5.7,19.8-13.5,26.4c-7.9,6.5-17.9,9.8-30.1,9.8C2978.3,339.3,2966.9,334.8,2958.5,325.6z"/>
	<path class="st1" d="M3070,337.6h-20.8v-99.2h41c11.3,0,20.2,2.8,26.5,8.5c6.2,5.6,9.3,13.3,9.3,23.2c0,6.5-1.6,12.2-4.7,17.2
		c-3.2,5.1-7.6,8.8-13.3,11l20.9,39.4h-23.5l-18.5-36.3h-17V337.6z M3070,286.3h18.2c5.2,0,9.3-1.4,12.2-4.2
		c2.9-2.8,4.3-6.7,4.3-11.6c0-4.8-1.5-8.7-4.5-11.5c-3-2.8-7.1-4.3-12.2-4.3h-18V286.3z"/>
	<path class="st1" d="M3205.4,337.6h-65.7v-99.2h65.7v17.1h-45v23.9h42.4v15.9h-42.4v25h45V337.6z"/>
	<path class="st1" d="M3277.8,313.5h-34.8l-7.6,24.1h-21.3l34.4-99.2h24.4l34.5,99.2h-22.1L3277.8,313.5z M3247.4,298h25.9
		l-12.7-40.6h-0.5L3247.4,298z"/>
	<path class="st1" d="M3328.2,337.6v-82.1h-29v-17.1h78.8v17.1h-29.1v82.1H3328.2z"/>
	<path class="st1" d="M3389.5,337.6v-99.2h20.8v99.2H3389.5z"/>
	<path class="st1" d="M3453.7,337.6l-33.3-99.2h23.2l22.7,77.8h0.5l22.7-77.8h22.6l-33.3,99.2H3453.7z"/>
	<path class="st1" d="M3522.2,337.6v-99.2h20.8v99.2H3522.2z"/>
	<path class="st1" d="M3583.5,337.6v-82.1h-29v-17.1h78.8v17.1h-29.1v82.1H3583.5z"/>
	<path class="st1" d="M3673,337.6v-37l-34.5-62.1h22.6l22.2,42.3h0.5l22.3-42.3h22.3l-34.6,62.1v37H3673z"/>
</g>
<g>
	<path class="st1" d="M3975.8,337.6v-99.2h20.8v99.2H3975.8z"/>
	<path class="st1" d="M4013,337.6v-99.2h17.3l46.3,64.6h0.5v-64.6h19.9v99.2h-17.2l-46.4-65h-0.6v65H4013z"/>
	<path class="st1" d="M4137.6,337.6v-82.1h-29v-17.1h78.8v17.1h-29.1v82.1H4137.6z"/>
	<path class="st1" d="M4264.7,337.6H4199v-99.2h65.7v17.1h-45v23.9h42.4v15.9h-42.4v25h45V337.6z"/>
	<path class="st1" d="M4368.3,295.9c0,13.5-3.9,24.1-11.6,31.8c-7.8,7.7-18.6,11.5-32.4,11.5c-14.8,0-26.5-4.6-35-13.7
		c-8.5-9.2-12.8-21.8-12.8-37.9c0-15.9,4.2-28.3,12.7-37.4c8.4-9.1,20-13.6,34.6-13.6c11.5,0,21.3,3.1,29.3,9.3
		c8,6.2,12.8,14.4,14.2,24.4h-20.8c-1.5-5.2-4.3-9.2-8.2-12.2c-4-2.9-8.8-4.4-14.4-4.4c-8.2,0-14.6,3-19.2,8.9
		c-4.6,5.9-6.9,14.1-6.9,24.7c0,10.7,2.4,19.2,7.3,25.4c4.8,6.2,11.4,9.3,19.7,9.3c6.8,0,12.3-1.9,16.6-5.7
		c4.3-3.8,6.5-8.8,6.7-14.9l0.1-1.6h-21.6v-15.1h41.8V295.9z"/>
	<path class="st1" d="M4402.8,337.6H4382v-99.2h41c11.3,0,20.2,2.8,26.5,8.5c6.2,5.6,9.3,13.3,9.3,23.2c0,6.5-1.6,12.2-4.7,17.2
		c-3.2,5.1-7.6,8.8-13.3,11l20.9,39.4h-23.5l-18.5-36.3h-17V337.6z M4402.8,286.3h18.2c5.2,0,9.3-1.4,12.2-4.2
		c2.9-2.8,4.3-6.7,4.3-11.6c0-4.8-1.5-8.7-4.5-11.5c-3-2.8-7.1-4.3-12.2-4.3h-18V286.3z"/>
	<path class="st1" d="M4529.9,313.5H4495l-7.6,24.1h-21.3l34.4-99.2h24.4l34.5,99.2h-22.1L4529.9,313.5z M4499.5,298h25.9
		l-12.7-40.6h-0.5L4499.5,298z"/>
	<path class="st1" d="M4580.2,337.6v-82.1h-29v-17.1h78.8v17.1H4601v82.1H4580.2z"/>
	<path class="st1" d="M4641.6,337.6v-99.2h20.8v99.2H4641.6z"/>
	<path class="st1" d="M4758.5,250.5c8.6,9.2,12.9,21.7,12.9,37.5c0,15.8-4.3,28.3-12.9,37.5c-8.6,9.2-20.3,13.8-34.9,13.8
		c-14.7,0-26.3-4.6-34.9-13.8c-8.6-9.2-12.9-21.7-12.9-37.5c0-15.8,4.3-28.3,12.9-37.5c8.6-9.2,20.2-13.8,34.9-13.8
		C4738.3,236.7,4749.9,241.3,4758.5,250.5z M4704.2,263.2c-4.9,6.1-7.3,14.4-7.3,24.8c0,10.4,2.4,18.6,7.2,24.7
		c4.8,6.1,11.3,9.1,19.5,9.1c8.1,0,14.6-3,19.4-9.1c4.8-6.1,7.2-14.4,7.2-24.7c0-10.4-2.4-18.7-7.2-24.8c-4.8-6.1-11.3-9.2-19.4-9.2
		C4715.4,254,4709,257.1,4704.2,263.2z"/>
	<path class="st1" d="M4784.7,337.6v-99.2h17.3l46.3,64.6h0.5v-64.6h19.9v99.2h-17.2l-46.4-65h-0.6v65H4784.7z"/>
</g>
<g>
	<path class="st1" d="M5187.9,337.6h-64.1v-99.2h20.8v82h43.4V337.6z"/>
	<path class="st1" d="M5265.9,337.6h-65.7v-99.2h65.7v17.1h-45v23.9h42.4v15.9H5221v25h45V337.6z"/>
	<path class="st1" d="M5338.3,313.5h-34.8l-7.6,24.1h-21.3l34.4-99.2h24.4l34.5,99.2h-22.1L5338.3,313.5z M5307.9,298h25.9
		l-12.7-40.6h-0.5L5307.9,298z"/>
	<path class="st1" d="M5416.3,238.4c14.9,0,26.5,4.3,34.8,12.8c8.3,8.6,12.5,20.8,12.5,36.4c0,15.7-4.2,28-12.5,36.8
		c-8.3,8.8-19.9,13.2-34.8,13.2H5378v-99.2H5416.3z M5398.8,320.4h15c9.3,0,16.4-2.8,21.2-8.3c4.9-5.6,7.4-13.7,7.4-24.4
		c0-10.4-2.5-18.3-7.4-23.9c-4.9-5.5-12-8.3-21.2-8.3h-15V320.4z"/>
	<path class="st1" d="M5493.2,309.3c0.5,4,2.6,7.3,6.5,9.8c3.8,2.5,8.5,3.7,14,3.7c5.5,0,10-1.2,13.5-3.6c3.4-2.3,5.2-5.3,5.2-9
		c0-3.2-1.3-5.8-3.8-7.8c-2.6-2-6.9-3.6-12.9-4.9l-12.9-2.8c-18.2-3.9-27.3-13.1-27.3-27.7c0-9.1,3.6-16.4,10.7-22.1
		c7.1-5.5,16.2-8.3,27.3-8.3c11.5,0,20.6,2.7,27.5,8.2c6.8,5.4,10.3,12.6,10.4,21.7h-19.5c-0.3-4.2-2.2-7.5-5.6-9.9
		c-3.3-2.4-7.6-3.6-12.9-3.6c-5.1,0-9.3,1.1-12.4,3.4c-3.2,2.2-4.7,5.2-4.7,8.9c0,3,1.3,5.5,3.8,7.4c2.5,1.8,6.6,3.4,12.4,4.7
		l12,2.5c9.9,2.1,17.2,5.4,21.7,9.9c4.5,4.4,6.8,10.4,6.8,18c0,9.6-3.6,17.3-10.9,22.9c-7.2,5.7-17,8.5-29.4,8.5
		c-12,0-21.5-2.7-28.5-8c-7.1-5.4-10.8-12.7-11.1-22H5493.2z"/>
</g>
</svg>
