<?xml version="1.0" encoding="utf-8"?>
<!-- Generator: Adobe Illustrator 19.1.1, SVG Export Plug-In . SVG Version: 6.00 Build 0)  -->
<svg version="1.1" id="Layer_1" xmlns="http://www.w3.org/2000/svg" xmlns:xlink="http://www.w3.org/1999/xlink" x="0px" y="0px"
	 viewBox="-6554 3074.7 3275 648.8" style="enable-background:new -6554 3074.7 3275 648.8;" xml:space="preserve">
<style type="text/css">
	.st0{fill:none;stroke:#00A2F4;stroke-width:14;stroke-linecap:round;stroke-miterlimit:10;}
	.st1{fill:#00A2F4;}
	.st2{enable-background:new    ;}
</style>
<g id="background">
</g>
<g id="object">
	<g>
		<g>
			<path class="st0" d="M-5270.3,3276.1h423.8c33,0,74.3,22.9,91.8,50.9l92.3,147.4c17.5,28,58.8,50.9,91.8,50.9h1224.7
				c33,0,60-27,60-60v-4.6c0-33-1.4-87-3.2-119.9l-0.3-4.7c-1.8-33-30.2-59.9-63.2-59.9h-1224.5c-33,0-60-27-60-60v-50.1
				c0-33,27-60,60-60h113.7"/>
		</g>
		<g>
			<path class="st0" d="M-5419.3,3523.3H-5843c-33,0-74.3-22.9-91.8-50.9l-92.3-147.4c-17.5-28-58.8-50.9-91.8-50.9h-363.9
				c-33,0-60,27-60,60v4.6c0,33,1.4,87,3.2,119.9l0.3,4.7c1.8,33,30.2,59.9,63.2,59.9h363.7c33,0,60,27,60,60v49.9c0,33-27,60-60,60
				h-113.7"/>
		</g>
		<g>
			<path class="st0" d="M-5893.2,3276.1h423.8c33,0,73.6,23.3,90.2,51.8l84.8,145.4c16.6,28.5,57.2,51.8,90.2,51.8h423.8"/>
		</g>
		<polygon class="st1" points="-5399.3,3524.4 -5430.7,3555.8 -5440.7,3545.8 -5419.3,3524.4 -5440.7,3503 -5430.7,3493 		"/>
		<polygon class="st1" points="-6207.6,3692.1 -6239,3723.5 -6249,3713.5 -6227.6,3692.1 -6249,3670.7 -6239,3660.7 		"/>
		<polygon class="st1" points="-4758.3,3525.2 -4789.7,3556.6 -4799.7,3546.6 -4778.3,3525.2 -4799.7,3503.8 -4789.7,3493.8 		"/>
		<polygon class="st1" points="-4436.3,3106.1 -4467.7,3137.5 -4477.7,3127.5 -4456.3,3106.1 -4477.7,3084.7 -4467.7,3074.7 		"/>
	</g>
	<g class="st2">
		<path class="st1" d="M-6441.5,3453h-20.8v-81.8h-30v-17.6h80.9v17.6h-30v81.8H-6441.5z"/>
		<path class="st1" d="M-6379.1,3408.4v44.6h-20.8v-99.4h20.8v37.6h38.8v-37.7h20.8v99.4h-20.8v-44.5H-6379.1z"/>
		<path class="st1" d="M-6280.1,3453h-20.8v-99.4h20.8V3453z"/>
		<path class="st1" d="M-6200,3353.6h19.4v99.4h-20.8l-40.6-70.9h-0.3v70.9h-19.4v-99.4h21.9l39.5,69.2h0.3V3353.6z"/>
		<path class="st1" d="M-6138.4,3453h-20.8v-99.4h20.8v40.4l37.9-40.4h26.9l-40.6,40.7l42.9,58.7h-26.7l-30.7-43.6l-9.7,10V3453z"/>
	</g>
	<g class="st2">
		<path class="st1" d="M-5806.1,3453h-20.8v-99.4h45.4c19.2,0,30.9,12.3,30.9,31.8c0,9-5,31.7-31.7,31.7h-23.8V3453L-5806.1,3453z
			 M-5786.9,3400c15.5,0,15.5-11.1,15.5-15.5c0-9.7-5.4-13.7-18.3-13.7h-16.5v29.2H-5786.9z"/>
		<path class="st1" d="M-5713.7,3435h49.4v18h-70.2v-99.4h20.8V3435z"/>
		<path class="st1" d="M-5635.8,3453h-21.9l35.4-99.4h24l35,99.4h-22.6l-6.4-20.5h-36.7L-5635.8,3453z M-5623.3,3415.3h25.3
			l-12.3-39.3h-0.3L-5623.3,3415.3z"/>
		<path class="st1" d="M-5489.3,3353.6h19.4v99.4h-20.8l-40.6-70.9h-0.3v70.9h-19.4v-99.4h21.9l39.5,69.2h0.3L-5489.3,3353.6
			L-5489.3,3353.6z"/>
	</g>
	<g>
		<path class="st1" d="M-5109.7,3353.6h43.9c33.5,0,40.4,28.5,40.4,47.4c0,21.3-8.4,52.1-41.3,52.1h-43.1v-99.5H-5109.7z
			 M-5089.3,3435.8h20.2c16.9,0,22.6-17,22.6-33.4c0-29.4-14-31.7-22.8-31.7h-19.9v65.1H-5089.3z"/>
		<path class="st1" d="M-4966.4,3350.9c13.2,0,47.8,5.7,47.8,52.3c0,46.7-34.6,52.3-47.8,52.3c-13.2,0-47.8-5.7-47.8-52.3
			S-4979.5,3350.9-4966.4,3350.9z M-4966.4,3438c11.2,0,27-6.9,27-34.8c0-27.8-15.8-34.8-27-34.8c-11.2,0-27,6.9-27,34.8
			S-4977.6,3438-4966.4,3438z"/>
	</g>
	<g>
		<path class="st1" d="M-4560.3,3399.4h41.5v53.6h-13.8l-2.1-12.5c-5.3,6.1-12.9,15.1-31,15.1c-24,0-45.7-17.2-45.7-52.1
			c0-27.1,15.1-52.8,48.6-52.6c30.5,0,42.5,19.8,43.6,33.5h-20.8c0-3.9-7.1-16.3-21.7-16.3c-14.8,0-28.5,10.2-28.5,35.7
			c0,27.1,14.8,34.2,28.9,34.2c4.6,0,19.8-1.8,24.1-21.9h-23.1V3399.4z"/>
		<path class="st1" d="M-4426.1,3371.2h-52.8v20.9h48.5v17.6h-48.5v25.8h55.1v17.6h-75.5v-99.4h73.1L-4426.1,3371.2L-4426.1,3371.2z
			"/>
		<path class="st1" d="M-4346.2,3353.6h19.4v99.4h-20.8l-40.6-70.9h-0.3v70.9h-19.4v-99.4h21.9l39.5,69.2h0.3V3353.6L-4346.2,3353.6
			z"/>
		<path class="st1" d="M-4233.8,3371.2h-52.8v20.9h48.5v17.6h-48.5v25.8h55.1v17.6h-75.5v-99.4h73.1v17.5H-4233.8z"/>
		<path class="st1" d="M-4214.6,3353.6h50.3c26.4,0,31.3,19.5,31.3,28.1c0,10.9-5.5,20.4-15.4,23.7c8.2,3.6,12.6,6.6,12.6,25.2
			c0,14.5,0,18.1,4.4,19.8v2.6h-23c-1.4-4.7-2.2-9.8-2.2-20.1c0-13.6-0.8-18.8-16.2-18.8h-21.5v38.9h-20.4L-4214.6,3353.6
			L-4214.6,3353.6z M-4169.8,3397.3c10.8,0,16.1-3.7,16.1-13.6c0-5.3-2.4-13-14.5-13h-25.9v26.6H-4169.8z"/>
		<path class="st1" d="M-4100.5,3453h-21.9l35.4-99.4h24l35,99.4h-22.6l-6.4-20.5h-36.7L-4100.5,3453z M-4088,3415.3h25.3
			l-12.3-39.3h-0.3L-4088,3415.3z"/>
		<path class="st1" d="M-3984.8,3453h-20.8v-81.8h-30v-17.6h80.9v17.6h-30v81.8H-3984.8z"/>
		<path class="st1" d="M-3869.3,3371.2h-52.8v20.9h48.5v17.6h-48.5v25.8h55.1v17.6h-75.5v-99.4h73.1L-3869.3,3371.2L-3869.3,3371.2z
			"/>
		<path class="st1" d="M-3790.8,3435h49.4v18h-70.2v-99.4h20.8L-3790.8,3435L-3790.8,3435z"/>
		<path class="st1" d="M-3653.9,3371.2h-52.8v20.9h48.5v17.6h-48.5v25.8h55.1v17.6h-75.5v-99.4h73.1L-3653.9,3371.2L-3653.9,3371.2z
			"/>
		<path class="st1" d="M-3620.5,3453h-21.9l35.4-99.4h24l35,99.4h-22.6l-6.4-20.5h-36.7L-3620.5,3453z M-3608,3415.3h25.3
			l-12.3-39.3h-0.3L-3608,3415.3z"/>
		<path class="st1" d="M-3534.7,3353.6h43.9c33.5,0,40.4,28.5,40.4,47.4c0,21.3-8.4,52.1-41.3,52.1h-43.1v-99.5H-3534.7z
			 M-3514.3,3435.8h20.2c16.9,0,22.6-17,22.6-33.4c0-29.4-14-31.7-22.8-31.7h-19.9v65.1H-3514.3z"/>
		<path class="st1" d="M-3419.9,3422.4c0.1,5.5,2.9,16.1,21,16.1c9.8,0,20.8-2.4,20.8-12.9c0-7.8-7.5-9.8-18-12.3l-10.7-2.5
			c-16.1-3.7-31.6-7.3-31.6-29.2c0-11.1,6-30.6,38.2-30.6c30.5,0,38.6,19.9,38.8,32.1h-19.9c-0.6-4.4-2.2-15-20.4-15
			c-7.9,0-17.3,2.9-17.3,11.9c0,7.8,6.4,9.4,10.5,10.4l24.2,6c13.6,3.3,26,8.9,26,26.7c0,29.9-30.5,32.5-39.2,32.5
			c-36.3,0-42.5-20.9-42.5-33.2C-3440,3422.4-3419.9,3422.4-3419.9,3422.4z"/>
	</g>
</g>
</svg>
