<?xml version="1.0" encoding="utf-8"?>
<!-- Generator: Adobe Illustrator 19.1.1, SVG Export Plug-In . SVG Version: 6.00 Build 0)  -->
<svg version="1.1" id="Layer_1" xmlns="http://www.w3.org/2000/svg" xmlns:xlink="http://www.w3.org/1999/xlink" x="0px" y="0px"
	 viewBox="-6863 3074.7 2656.9 648.8" style="enable-background:new -6863 3074.7 2656.9 648.8;" xml:space="preserve">
<style type="text/css">
	.st0{fill:none;stroke:#00A2F4;stroke-width:14;stroke-linecap:round;stroke-miterlimit:10;}
	.st1{fill:#00A2F4;}
</style>
<g id="background">
</g>
<g id="object">
	<g>
		<g>
			<path class="st0" d="M-5577.4,3276.1h804.2c33,0,74.3,22.9,91.8,50.9l92.3,147.4c17.5,28,58.8,50.9,91.8,50.9h218.3
				c33,0,60-27,60-60v-4.6c0-33-1.4-87-3.2-119.9l-0.3-4.7c-1.8-33-30.2-59.9-63.2-59.9h-274.2c-33,0-60-27-60-60v-50.1
				c0-33,27-60,60-60h113.7"/>
		</g>
		<g>
			<path class="st0" d="M-5726.4,3523.3h-423.8c-33,0-74.3-22.9-91.8-50.9l-92.3-147.4c-17.5-28-58.8-50.9-91.8-50.9H-6790
				c-33,0-60,27-60,60v4.6c0,33,1.4,87,3.2,119.9l0.3,4.7c1.8,33,30.2,59.9,63.2,59.9h363.8c33,0,60,27,60,60v49.9c0,33-27,60-60,60
				h-113.8"/>
		</g>
		<g>
			<path class="st0" d="M-6200.4,3276.1h423.8c33,0,73.6,23.3,90.2,51.8l84.8,145.4c16.6,28.5,57.2,51.8,90.2,51.8h770.7"/>
		</g>
		<polygon class="st1" points="-5706.4,3524.4 -5737.9,3555.8 -5747.9,3545.8 -5726.4,3524.4 -5747.9,3503 -5737.9,3493 		"/>
		<polygon class="st1" points="-6514.8,3692.1 -6546.1,3723.5 -6556.1,3713.5 -6534.8,3692.1 -6556.1,3670.7 -6546.1,3660.7 		"/>
		<polygon class="st1" points="-4715.1,3525.2 -4746.5,3556.6 -4756.5,3546.6 -4735.1,3525.2 -4756.5,3503.8 -4746.5,3493.8 		"/>
		<polygon class="st1" points="-4426.8,3106.1 -4458.1,3137.5 -4468.1,3127.5 -4446.8,3106.1 -4468.1,3084.7 -4458.1,3074.7 		"/>
	</g>
	<g>
		<path class="st1" d="M-6723.8,3453h-20.8v-99.4h20.8V3453z"/>
		<path class="st1" d="M-6704.4,3353.6h43.9c33.5,0,40.4,28.5,40.4,47.4c0,21.3-8.4,52.1-41.3,52.1h-43.1L-6704.4,3353.6
			L-6704.4,3353.6z M-6684,3435.8h20.2c16.9,0,22.6-17,22.6-33.4c0-29.4-14-31.7-22.8-31.7h-19.9L-6684,3435.8L-6684,3435.8z"/>
		<path class="st1" d="M-6531.3,3371.2h-52.8v20.9h48.5v17.6h-48.5v25.8h55.2v17.6h-75.5v-99.4h73.1V3371.2L-6531.3,3371.2z"/>
		<path class="st1" d="M-6497.9,3453h-21.9l35.4-99.4h24l35,99.4h-22.5l-6.4-20.5h-36.7L-6497.9,3453z M-6485.5,3415.3h25.3
			l-12.3-39.3h-0.3L-6485.5,3415.3z"/>
	</g>
	<g>
		<path class="st1" d="M-6113.3,3453h-20.8v-99.4h45.4c19.2,0,30.9,12.3,30.9,31.8c0,9-5,31.7-31.7,31.7h-23.8V3453L-6113.3,3453z
			 M-6094,3400c15.5,0,15.5-11.1,15.5-15.5c0-9.7-5.4-13.7-18.3-13.7h-16.5v29.2H-6094z"/>
		<path class="st1" d="M-6020.9,3435h49.4v18h-70.2v-99.4h20.8V3435z"/>
		<path class="st1" d="M-5942.9,3453h-21.9l35.4-99.4h24l35,99.4h-22.6l-6.4-20.5h-36.7L-5942.9,3453z M-5930.5,3415.3h25.3
			l-12.3-39.3h-0.3L-5930.5,3415.3z"/>
		<path class="st1" d="M-5796.4,3353.6h19.4v99.4h-20.8l-40.6-70.9h-0.3v70.9h-19.4v-99.4h21.9l39.5,69.2h0.3L-5796.4,3353.6
			L-5796.4,3353.6z"/>
	</g>
	<g>
		<path class="st1" d="M-5465.8,3422.4c0.1,5.5,2.9,16.1,21,16.1c9.8,0,20.8-2.4,20.8-12.9c0-7.8-7.5-9.8-18-12.3l-10.7-2.5
			c-16.1-3.7-31.6-7.3-31.6-29.2c0-11.1,6-30.6,38.2-30.6c30.5,0,38.6,19.9,38.8,32.1h-19.9c-0.6-4.4-2.2-15-20.4-15
			c-7.9,0-17.3,2.9-17.3,11.9c0,7.8,6.4,9.4,10.5,10.4l24.2,6c13.6,3.3,26,8.9,26,26.7c0,29.9-30.5,32.5-39.2,32.5
			c-36.3,0-42.5-20.9-42.5-33.2C-5485.9,3422.4-5465.8,3422.4-5465.8,3422.4z"/>
		<path class="st1" d="M-5344.9,3350.9c13.2,0,47.8,5.7,47.8,52.3c0,46.7-34.6,52.3-47.8,52.3c-13.2,0-47.8-5.7-47.8-52.3
			S-5358,3350.9-5344.9,3350.9z M-5344.9,3438c11.2,0,27-6.9,27-34.8s-15.8-34.8-27-34.8c-11.2,0-27,6.9-27,34.8
			S-5356,3438-5344.9,3438z"/>
		<path class="st1" d="M-5259.6,3435h49.4v18h-70.2v-99.4h20.8V3435L-5259.6,3435z"/>
		<path class="st1" d="M-5116.3,3418.2c0,26.2-15.8,37.4-40.9,37.4c-9.1,0-22.7-2.2-31.6-12c-5.4-6.1-7.5-14.1-7.8-24.1v-65.9h21.2
			v64.5c0,13.8,8,19.9,17.7,19.9c14.3,0,20.1-6.9,20.1-19v-65.5h21.2v64.7C-5116.4,3418.2-5116.3,3418.2-5116.3,3418.2z"/>
		<path class="st1" d="M-5053.6,3453h-20.8v-81.8h-30v-17.6h80.9v17.6h-30L-5053.6,3453L-5053.6,3453z"/>
		<path class="st1" d="M-4992.1,3453h-20.8v-99.4h20.8V3453z"/>
		<path class="st1" d="M-4929.4,3350.9c13.2,0,47.8,5.7,47.8,52.3c0,46.7-34.6,52.3-47.8,52.3c-13.2,0-47.8-5.7-47.8-52.3
			S-4942.5,3350.9-4929.4,3350.9z M-4929.4,3438c11.2,0,27-6.9,27-34.8s-15.8-34.8-27-34.8c-11.2,0-27,6.9-27,34.8
			S-4940.6,3438-4929.4,3438z"/>
		<path class="st1" d="M-4804.4,3353.6h19.4v99.4h-20.8l-40.6-70.9h-0.3v70.9h-19.4v-99.4h21.9l39.5,69.2h0.3V3353.6L-4804.4,3353.6
			z"/>
	</g>
	<g>
		<path class="st1" d="M-4499.1,3353.6h43.9c33.5,0,40.4,28.5,40.4,47.4c0,21.3-8.4,52.1-41.3,52.1h-43.1v-99.5
			C-4499.4,3353.6-4499.1,3353.6-4499.1,3353.6z M-4478.8,3435.8h20.2c16.9,0,22.6-17,22.6-33.4c0-29.4-14-31.7-22.8-31.7h-19.9
			v65.1C-4478.6,3435.8-4478.8,3435.8-4478.8,3435.8z"/>
		<path class="st1" d="M-4355.8,3350.9c13.2,0,47.8,5.7,47.8,52.3c0,46.7-34.6,52.3-47.8,52.3c-13.2,0-47.8-5.7-47.8-52.3
			S-4368.9,3350.9-4355.8,3350.9z M-4355.8,3438c11.2,0,27-6.9,27-34.8s-15.8-34.8-27-34.8c-11.2,0-27,6.9-27,34.8
			S-4366.9,3438-4355.8,3438z"/>
	</g>
</g>
</svg>
