<?xml version="1.0" encoding="utf-8"?>
<!-- Generator: Adobe Illustrator 19.1.1, SVG Export Plug-In . SVG Version: 6.00 Build 0)  -->
<svg version="1.1" id="Layer_1" xmlns="http://www.w3.org/2000/svg" xmlns:xlink="http://www.w3.org/1999/xlink" x="0px" y="0px"
	 viewBox="1312 -308.8 2656.9 648.8" style="enable-background:new 1312 -308.8 2656.9 648.8;" xml:space="preserve">
<style type="text/css">
	.st0{fill:none;stroke:#2B9199;stroke-width:14;stroke-linecap:round;stroke-miterlimit:10;}
	.st1{fill:none;stroke:#17BED2;stroke-width:14;stroke-linecap:round;stroke-miterlimit:10;}
	.st2{fill:none;stroke:#1DA8B2;stroke-width:14;stroke-linecap:round;stroke-miterlimit:10;}
	.st3{fill:#17BED2;}
	.st4{fill:#1DA8B2;}
	.st5{fill:#2B9199;}
</style>
<g id="background">
</g>
<g id="object">
	<g>
		<g>
			<path class="st0" d="M2597.6-107.4h804.2c33,0,74.3,22.9,91.8,50.9l92.3,147.4c17.5,28,58.8,50.9,91.8,50.9H3896
				c33,0,60-27,60-60v-4.6c0-33-1.4-87-3.2-119.9l-0.3-4.7c-1.8-33-30.2-59.9-63.2-59.9h-274.2c-33,0-60-27-60-60v-50.1
				c0-33,27-60,60-60h113.7"/>
		</g>
		<g>
			<path class="st1" d="M2448.6,139.8h-423.8c-33,0-74.3-22.9-91.8-50.9l-92.3-147.4c-17.5-28-58.8-50.9-91.8-50.9h-363.9
				c-33,0-60,27-60,60v4.6c0,33,1.4,87,3.2,119.9l0.3,4.7c1.8,33,30.2,59.9,63.2,59.9h363.8c33,0,60,27,60,60v49.9c0,33-27,60-60,60
				h-113.8"/>
		</g>
		<g>
			<path class="st2" d="M1974.7-107.4h423.8c33,0,73.6,23.3,90.2,51.8l84.8,145.4c16.6,28.5,57.2,51.8,90.2,51.8h770.7"/>
		</g>
		<polygon class="st3" points="2468.6,140.9 2437.2,172.3 2427.2,162.3 2448.6,140.9 2427.2,119.5 2437.2,109.5 		"/>
		<polygon class="st3" points="1660.3,308.6 1628.9,340 1618.9,330 1640.3,308.6 1618.9,287.2 1628.9,277.2 		"/>
		<polygon class="st4" points="3459.9,141.7 3428.5,173.1 3418.5,163.1 3439.9,141.7 3418.5,120.3 3428.5,110.3 		"/>
		<polygon class="st5" points="3748.3,-277.4 3716.9,-246 3706.9,-256 3728.3,-277.4 3706.9,-298.8 3716.9,-308.8 		"/>
	</g>
	<g>
		<path class="st3" d="M1451.3,69.5h-20.8v-99.4h20.8V69.5z"/>
		<path class="st3" d="M1470.7-29.9h43.9c33.5,0,40.4,28.5,40.4,47.4c0,21.3-8.4,52.1-41.3,52.1h-43.1L1470.7-29.9L1470.7-29.9z
			 M1491.1,52.3h20.2c16.9,0,22.6-17,22.6-33.4c0-29.4-14-31.7-22.8-31.7h-19.9L1491.1,52.3L1491.1,52.3z"/>
		<path class="st3" d="M1643.8-12.3H1591V8.6h48.5v17.6H1591V52h55.2v17.6h-75.5v-99.4h73.1L1643.8-12.3L1643.8-12.3z"/>
		<path class="st3" d="M1677.2,69.5h-21.9l35.4-99.4h24l35,99.4h-22.5l-6.4-20.5h-36.7L1677.2,69.5z M1689.6,31.8h25.3l-12.3-39.3
			h-0.3L1689.6,31.8z"/>
	</g>
	<g>
		<path class="st3" d="M2061.8,69.5H2041v-99.4h45.4c19.2,0,30.9,12.3,30.9,31.8c0,9-5,31.7-31.7,31.7h-23.8L2061.8,69.5
			L2061.8,69.5z M2081,16.5c15.5,0,15.5-11.1,15.5-15.5c0-9.7-5.4-13.7-18.3-13.7h-16.5v29.2H2081z"/>
		<path class="st3" d="M2154.1,51.5h49.4v18h-70.2v-99.4h20.8V51.5z"/>
		<path class="st3" d="M2232.1,69.5h-21.9l35.4-99.4h24l35,99.4h-22.6l-6.4-20.5h-36.7L2232.1,69.5z M2244.5,31.8h25.3l-12.3-39.3
			h-0.3L2244.5,31.8z"/>
		<path class="st3" d="M2378.6-29.9h19.4v99.4h-20.8l-40.6-70.9h-0.3v70.9h-19.4v-99.4h21.9l39.5,69.2h0.3V-29.9z"/>
	</g>
	<g>
		<path class="st4" d="M2709.3,38.9c0.1,5.5,2.9,16.1,21,16.1c9.8,0,20.8-2.4,20.8-12.9c0-7.8-7.5-9.8-18-12.3l-10.7-2.5
			c-16.1-3.7-31.6-7.3-31.6-29.2c0-11.1,6-30.6,38.2-30.6c30.5,0,38.6,19.9,38.8,32.1h-19.9c-0.6-4.4-2.2-15-20.4-15
			c-7.9,0-17.3,2.9-17.3,11.9c0,7.8,6.4,9.4,10.5,10.4l24.2,6c13.6,3.3,26,8.9,26,26.7c0,29.9-30.5,32.5-39.2,32.5
			c-36.3,0-42.5-20.9-42.5-33.2C2689.2,38.9,2709.3,38.9,2709.3,38.9z"/>
		<path class="st4" d="M2830.2-32.6c13.2,0,47.8,5.7,47.8,52.3c0,46.7-34.6,52.3-47.8,52.3s-47.8-5.7-47.8-52.3
			S2817-32.6,2830.2-32.6z M2830.2,54.5c11.2,0,27-6.9,27-34.8s-15.8-34.8-27-34.8s-27,6.9-27,34.8S2819,54.5,2830.2,54.5z"/>
		<path class="st4" d="M2915.4,51.5h49.4v18h-70.2v-99.4h20.8V51.5L2915.4,51.5z"/>
		<path class="st4" d="M3058.8,34.7c0,26.2-15.8,37.4-40.9,37.4c-9.1,0-22.7-2.2-31.6-12c-5.4-6.1-7.5-14.1-7.8-24.1v-65.9h21.2
			v64.5c0,13.8,8,19.9,17.7,19.9c14.3,0,20.1-6.9,20.1-19V-30h21.2v64.7C3058.7,34.7,3058.8,34.7,3058.8,34.7z"/>
		<path class="st4" d="M3121.4,69.5h-20.8v-81.8h-30v-17.6h80.9v17.6h-30L3121.4,69.5L3121.4,69.5z"/>
		<path class="st4" d="M3182.9,69.5h-20.8v-99.4h20.8V69.5z"/>
		<path class="st4" d="M3245.6-32.6c13.2,0,47.8,5.7,47.8,52.3c0,46.7-34.6,52.3-47.8,52.3s-47.8-5.7-47.8-52.3
			S3232.5-32.6,3245.6-32.6z M3245.6,54.5c11.2,0,27-6.9,27-34.8s-15.8-34.8-27-34.8s-27,6.9-27,34.8S3234.4,54.5,3245.6,54.5z"/>
		<path class="st4" d="M3370.7-29.9h19.4v99.4h-20.8l-40.6-70.9h-0.3v70.9h-19.4v-99.4h21.9l39.5,69.2h0.3L3370.7-29.9L3370.7-29.9z
			"/>
	</g>
	<g>
		<path class="st5" d="M3675.9-29.9h43.9c33.5,0,40.4,28.5,40.4,47.4c0,21.3-8.4,52.1-41.3,52.1h-43.1v-99.5
			C3675.7-29.9,3675.9-29.9,3675.9-29.9z M3696.3,52.3h20.2c16.9,0,22.6-17,22.6-33.4c0-29.4-14-31.7-22.8-31.7h-19.9v65.1
			C3696.4,52.3,3696.3,52.3,3696.3,52.3z"/>
		<path class="st5" d="M3819.3-32.6c13.2,0,47.8,5.7,47.8,52.3c0,46.7-34.6,52.3-47.8,52.3s-47.8-5.7-47.8-52.3
			S3806.1-32.6,3819.3-32.6z M3819.3,54.5c11.2,0,27-6.9,27-34.8s-15.8-34.8-27-34.8s-27,6.9-27,34.8S3808.1,54.5,3819.3,54.5z"/>
	</g>
</g>
</svg>
