<?xml version="1.0" encoding="utf-8"?>
<!-- Generator: Adobe Illustrator 19.1.1, SVG Export Plug-In . SVG Version: 6.00 Build 0)  -->
<svg version="1.1" id="Layer_1" xmlns="http://www.w3.org/2000/svg" xmlns:xlink="http://www.w3.org/1999/xlink" x="0px" y="0px"
	 viewBox="-6141 3074.7 4099.4 648.8" style="enable-background:new -6141 3074.7 4099.4 648.8;" xml:space="preserve">
<style type="text/css">
	.st0{fill:none;stroke:#00A2F4;stroke-width:14;stroke-linecap:round;stroke-miterlimit:10;}
	.st1{fill:#00A2F4;}
</style>
<g id="background">
</g>
<g id="object">
	<g>
		<g>
			<path class="st0" d="M-3667.2,3276.1h1012.4c33,0,74.3,22.9,91.8,50.9l92.3,147.4c17.5,28,58.8,50.9,91.8,50.9h252.1
				c33,0,60-27,60-60v-4.6c0-33-1.4-87-3.2-119.9l-0.3-4.7c-1.8-33-30.2-59.9-63.2-59.9h-252.1c-33,0-60-27-60-60v-50.1
				c0-33,27-60,60-60h113.7"/>
		</g>
		<g>
			<path class="st0" d="M-3816.2,3523.3h-759.5c-33,0-74.3-22.9-91.8-50.9l-92.3-147.4c-17.5-28-58.8-50.9-91.8-50.9h-1209.1
				c-33,0-60,27-60,60v4.6c0,33,1.4,87,3.2,119.9l0.3,4.7c1.8,33,30.2,59.9,63.2,59.9h1209c33,0,60,27,60,60v49.9c0,33-27,60-60,60
				h-113.7"/>
		</g>
		<g>
			<path class="st0" d="M-4625.8,3276.1h759.5c33,0,73.6,23.3,90.2,51.8l84.8,145.4c16.6,28.5,57.2,51.8,90.2,51.8h1012.4"/>
		</g>
		<polygon class="st1" points="-3796.1,3524.4 -3827.6,3555.8 -3837.6,3545.8 -3816.2,3524.4 -3837.6,3503 -3827.6,3493 		"/>
		<polygon class="st1" points="-4940.2,3692.1 -4971.6,3723.5 -4981.6,3713.5 -4960.2,3692.1 -4981.6,3670.7 -4971.6,3660.7 		"/>
		<polygon class="st1" points="-2566.5,3525.2 -2597.9,3556.6 -2607.9,3546.6 -2586.5,3525.2 -2607.9,3503.8 -2597.9,3493.8 		"/>
		<polygon class="st1" points="-2244.5,3106.1 -2276,3137.5 -2286,3127.5 -2264.6,3106.1 -2286,3084.7 -2276,3074.7 		"/>
	</g>
	<g>
		<path class="st1" d="M-5996.1,3422.4c0.1,5.5,2.9,16.1,21,16.1c9.8,0,20.8-2.4,20.8-12.9c0-7.8-7.5-9.8-18-12.3l-10.7-2.5
			c-16.1-3.7-31.6-7.3-31.6-29.2c0-11.1,6-30.6,38.2-30.6c30.5,0,38.6,19.9,38.8,32.1h-19.9c-0.6-4.4-2.2-15-20.4-15
			c-7.9,0-17.3,2.9-17.3,11.9c0,7.8,6.4,9.4,10.5,10.4l24.2,6c13.6,3.3,26,8.9,26,26.7c0,29.9-30.5,32.5-39.2,32.5
			c-36.3,0-42.5-20.9-42.5-33.2H-5996.1z"/>
		<path class="st1" d="M-5876.3,3453h-20.8v-81.8h-30v-17.6h80.9v17.6h-30L-5876.3,3453L-5876.3,3453z"/>
		<path class="st1" d="M-5754.3,3418.2c0,26.2-15.8,37.4-40.9,37.4c-9.1,0-22.7-2.2-31.6-12c-5.4-6.1-7.5-14.1-7.8-24.1v-65.9h21.2
			v64.5c0,13.8,8,19.9,17.7,19.9c14.3,0,20.1-6.9,20.1-19v-65.5h21.2v64.7H-5754.3z"/>
		<path class="st1" d="M-5734,3353.6h43.9c33.5,0,40.4,28.5,40.4,47.4c0,21.3-8.4,52.1-41.3,52.1h-43V3353.6z M-5713.6,3435.8h20.2
			c16.9,0,22.6-17,22.6-33.4c0-29.4-14-31.7-22.8-31.7h-19.9v65.1H-5713.6z"/>
		<path class="st1" d="M-5597,3453h-20.8v-37.5l-34.3-61.9h24.5l20.6,43.2l19.7-43.2h23.5l-33.2,62.1V3453z"/>
		<path class="st1" d="M-5469.5,3350.9c13.2,0,47.8,5.7,47.8,52.3c0,46.7-34.6,52.3-47.8,52.3s-47.8-5.7-47.8-52.3
			S-5482.7,3350.9-5469.5,3350.9z M-5469.5,3438c11.2,0,27-6.9,27-34.8s-15.8-34.8-27-34.8s-27,6.9-27,34.8
			S-5480.7,3438-5469.5,3438z"/>
		<path class="st1" d="M-5384.3,3453h-20.8v-99.4h70.8v17.6h-50v22.4h43.8v17.6h-43.8V3453z"/>
		<path class="st1" d="M-5221.4,3353.6h19.4v99.4h-20.8l-40.6-70.9h-0.3v70.9h-19.3v-99.4h21.9l39.5,69.2h0.3v-69.2H-5221.4z"/>
		<path class="st1" d="M-5108.9,3371.2h-52.8v20.9h48.5v17.6h-48.5v25.8h55.1v17.6h-75.4v-99.4h73.1V3371.2z"/>
		<path class="st1" d="M-5016.6,3371.2h-52.8v20.9h48.5v17.6h-48.5v25.8h55.1v17.6h-75.5v-99.4h73.1v17.5H-5016.6z"/>
		<path class="st1" d="M-4997.3,3353.6h43.9c33.5,0,40.4,28.5,40.4,47.4c0,21.3-8.4,52.1-41.3,52.1h-43.1v-99.5H-4997.3z
			 M-4977,3435.8h20.2c16.9,0,22.6-17,22.6-33.4c0-29.4-14-31.7-22.8-31.7h-20V3435.8z"/>
		<path class="st1" d="M-4882.5,3422.4c0.1,5.5,2.9,16.1,21,16.1c9.8,0,20.8-2.4,20.8-12.9c0-7.8-7.5-9.8-18-12.3l-10.7-2.5
			c-16.1-3.7-31.6-7.3-31.6-29.2c0-11.1,6-30.6,38.2-30.6c30.5,0,38.6,19.9,38.8,32.1h-19.9c-0.6-4.4-2.2-15-20.4-15
			c-7.9,0-17.3,2.9-17.3,11.9c0,7.8,6.4,9.4,10.5,10.4l24.2,6c13.6,3.3,26,8.9,26,26.7c0,29.9-30.5,32.5-39.2,32.5
			c-36.3,0-42.5-20.9-42.5-33.2H-4882.5z"/>
	</g>
	<g>
		<path class="st1" d="M-4544.7,3422.4c0.1,5.5,2.9,16.1,21,16.1c9.8,0,20.8-2.4,20.8-12.9c0-7.8-7.5-9.8-18-12.3l-10.7-2.5
			c-16.1-3.7-31.6-7.3-31.6-29.2c0-11.1,6-30.6,38.2-30.6c30.5,0,38.6,19.9,38.8,32.1h-19.8c-0.6-4.4-2.2-15-20.4-15
			c-7.9,0-17.3,2.9-17.3,11.9c0,7.8,6.4,9.4,10.5,10.4l24.2,6c13.6,3.3,26,8.9,26,26.7c0,29.9-30.5,32.5-39.2,32.5
			c-36.3,0-42.5-20.9-42.5-33.2H-4544.7z"/>
		<path class="st1" d="M-4423.8,3350.9c13.2,0,47.8,5.7,47.8,52.3c0,46.7-34.6,52.3-47.8,52.3c-13.2,0-47.8-5.7-47.8-52.3
			S-4436.9,3350.9-4423.8,3350.9z M-4423.8,3438c11.2,0,27-6.9,27-34.8s-15.8-34.8-27-34.8c-11.2,0-27,6.9-27,34.8
			S-4435,3438-4423.8,3438z"/>
		<path class="st1" d="M-4338.6,3435h49.4v18h-70.2v-99.4h20.8L-4338.6,3435L-4338.6,3435z"/>
		<path class="st1" d="M-4195.2,3418.2c0,26.2-15.8,37.4-40.9,37.4c-9.1,0-22.7-2.2-31.6-12c-5.4-6.1-7.5-14.1-7.8-24.1v-65.9h21.2
			v64.5c0,13.8,8,19.9,17.7,19.9c14.3,0,20.1-6.9,20.1-19v-65.5h21.2v64.7H-4195.2z"/>
		<path class="st1" d="M-4132.6,3453h-20.8v-81.8h-30v-17.6h80.9v17.6h-30v81.8H-4132.6z"/>
		<path class="st1" d="M-4071.1,3453h-20.8v-99.4h20.8V3453z"/>
		<path class="st1" d="M-4008.4,3350.9c13.2,0,47.8,5.7,47.8,52.3c0,46.7-34.6,52.3-47.8,52.3s-47.8-5.7-47.8-52.3
			C-4056.1,3356.6-4021.5,3350.9-4008.4,3350.9z M-4008.4,3438c11.2,0,27-6.9,27-34.8s-15.8-34.8-27-34.8s-27,6.9-27,34.8
			S-4019.6,3438-4008.4,3438z"/>
		<path class="st1" d="M-3883.3,3353.6h19.4v99.4h-20.8l-40.6-70.9h-0.3v70.9h-19.4v-99.4h21.9l39.5,69.2h0.3L-3883.3,3353.6
			L-3883.3,3353.6z"/>
	</g>
	<g>
		<path class="st1" d="M-3565.8,3453h-20.8v-99.4h20.8V3453z"/>
		<path class="st1" d="M-3485.8,3353.6h19.4v99.4h-20.8l-40.6-70.9h-0.3v70.9h-19.4v-99.4h21.9l39.5,69.2h0.3L-3485.8,3353.6
			L-3485.8,3353.6z"/>
		<path class="st1" d="M-3404.2,3453h-20.8v-81.8h-30v-17.6h80.9v17.6h-30L-3404.2,3453L-3404.2,3453z"/>
		<path class="st1" d="M-3288.7,3371.2h-52.8v20.9h48.5v17.6h-48.5v25.8h55.1v17.6h-75.5v-99.4h73.1L-3288.7,3371.2L-3288.7,3371.2z
			"/>
		<path class="st1" d="M-3222.8,3399.4h41.5v53.6h-13.8l-2.1-12.5c-5.3,6.1-12.9,15.1-31,15.1c-24,0-45.7-17.2-45.7-52.1
			c0-27.1,15.1-52.8,48.6-52.6c30.5,0,42.5,19.8,43.6,33.5h-20.8c0-3.9-7.1-16.3-21.7-16.3c-14.8,0-28.5,10.2-28.5,35.7
			c0,27.1,14.8,34.2,28.9,34.2c4.6,0,19.8-1.8,24.1-21.9h-23.1V3399.4z"/>
		<path class="st1" d="M-3161.7,3353.6h50.3c26.4,0,31.3,19.5,31.3,28.1c0,10.9-5.5,20.4-15.4,23.7c8.2,3.6,12.6,6.6,12.6,25.2
			c0,14.5,0,18.1,4.4,19.8v2.6h-23c-1.4-4.7-2.2-9.8-2.2-20.1c0-13.6-0.8-18.8-16.2-18.8h-21.5v38.9h-20.4L-3161.7,3353.6
			L-3161.7,3353.6z M-3117,3397.3c10.8,0,16.1-3.7,16.1-13.6c0-5.3-2.4-13-14.5-13h-25.9v26.6H-3117z"/>
		<path class="st1" d="M-3047.6,3453h-21.9l35.4-99.4h24l35,99.4h-22.6l-6.4-20.5h-36.7L-3047.6,3453z M-3035.2,3415.3h25.3
			l-12.3-39.3h-0.3L-3035.2,3415.3z"/>
		<path class="st1" d="M-2932,3453h-20.8v-81.8h-30v-17.6h80.9v17.6h-30L-2932,3453L-2932,3453z"/>
		<path class="st1" d="M-2870.5,3453h-20.8v-99.4h20.8V3453z"/>
		<path class="st1" d="M-2807.8,3350.9c13.2,0,47.8,5.7,47.8,52.3c0,46.7-34.6,52.3-47.8,52.3s-47.8-5.7-47.8-52.3
			S-2821,3350.9-2807.8,3350.9z M-2807.8,3438c11.2,0,27-6.9,27-34.8s-15.8-34.8-27-34.8s-27,6.9-27,34.8S-2819,3438-2807.8,3438z"
			/>
		<path class="st1" d="M-2682.8,3353.6h19.4v99.4h-20.8l-40.6-70.9h-0.3v70.9h-19.4v-99.4h21.9l39.5,69.2h0.3L-2682.8,3353.6
			L-2682.8,3353.6z"/>
	</g>
	<g>
		<path class="st1" d="M-2363.9,3353.6h43.9c33.5,0,40.4,28.5,40.4,47.4c0,21.3-8.4,52.1-41.3,52.1h-43.1v-99.5H-2363.9z
			 M-2343.5,3435.8h20.2c16.9,0,22.6-17,22.6-33.4c0-29.4-14-31.7-22.8-31.7h-19.9v65.1H-2343.5z"/>
		<path class="st1" d="M-2220.6,3350.9c13.2,0,47.8,5.7,47.8,52.3c0,46.7-34.6,52.3-47.8,52.3s-47.8-5.7-47.8-52.3
			C-2268.3,3356.6-2233.7,3350.9-2220.6,3350.9z M-2220.6,3438c11.2,0,27-6.9,27-34.8s-15.8-34.8-27-34.8s-27,6.9-27,34.8
			S-2231.8,3438-2220.6,3438z"/>
	</g>
</g>
</svg>
